<svg xmlns="http://www.w3.org/2000/svg" viewBox="0 0 256 256">
  <path d="M128 180c-25 0-45-15-45-35 0-15 10-28 25-35-10-5-18-15-18-27 0-15 17-27 38-27s38 12 38 27c0 12-8 22-18 27 15 7 25 20 25 35 0 20-20 35-45 35z" fill="none" stroke="#8FA888" stroke-width="3" stroke-linecap="round" stroke-linejoin="round"/>
  <path d="M83 145c-15 8-30 5-38-5-8-10-6-25 5-35 8-7 20-8 30-3" fill="none" stroke="#8FA888" stroke-width="3" stroke-linecap="round" stroke-linejoin="round"/>
  <path d="M173 145c15 8 30 5 38-5 8-10 6-25-5-35-8-7-20-8-30-3" fill="none" stroke="#8FA888" stroke-width="3" stroke-linecap="round" stroke-linejoin="round"/>
  <path d="M95 155c-12 12-28 15-40 8-12-7-16-22-10-37 5-12 16-20 28-20" fill="none" stroke="#8FA888" stroke-width="3" stroke-linecap="round" stroke-linejoin="round"/>
  <path d="M161 155c12 12 28 15 40 8 12-7 16-22 10-37-5-12-16-20-28-20" fill="none" stroke="#8FA888" stroke-width="3" stroke-linecap="round" stroke-linejoin="round"/>
  <circle cx="128" cy="190" r="3" fill="#8FA888"/>
</svg>